<?xml version="1.0" encoding="utf-8"?>
<!-- Generator: Adobe Illustrator 23.0.1, SVG Export Plug-In . SVG Version: 6.00 Build 0)  -->
<svg version="1.1" id="Layer_1" xmlns="http://www.w3.org/2000/svg" xmlns:xlink="http://www.w3.org/1999/xlink" x="0px" y="0px"
	 viewBox="0 0 517.3 636" style="enable-background:new 0 0 517.3 636;" xml:space="preserve">
<style type="text/css">
	.st0{fill:#FFFFFF;}
</style>
<g>
	<path class="st0" d="M35.3,256.6c-21.7-23.5-32.5-55.3-32.5-95.3C2.8,120.5,13.7,88,35.3,64C57,40,86.2,28,123,28
		c37,0,66.3,12,87.9,36s32.4,56.4,32.4,97.3c0,40.1-10.8,71.8-32.4,95.3S160,291.9,123,291.9C86.2,291.9,57,280.1,35.3,256.6z
		 M173.1,224.6c12-15.3,18-36.5,18-63.6c0-27.7-6-49.4-18-65c-12-15.7-28.7-23.5-50-23.5c-21.2,0-37.8,7.8-49.9,23.5
		c-12,15.7-18,37.3-18,65c0,27.1,6,48.3,18,63.6c12,15.3,28.6,22.9,50,22.9C144.3,247.5,161,239.8,173.1,224.6z"/>
	<path class="st0" d="M306.5,256.6c-21.7-23.5-32.5-55.3-32.5-95.3c0-40.9,10.8-73.3,32.5-97.3c21.7-24,50.9-36,87.7-36
		c37,0,66.3,12,87.9,36c21.6,24,32.4,56.4,32.4,97.3c0,40.1-10.8,71.8-32.4,95.3c-21.6,23.5-50.9,35.2-87.9,35.2
		C357.4,291.9,328.2,280.1,306.5,256.6z M444.2,224.6c12-15.3,18-36.5,18-63.6c0-27.7-6-49.4-18-65c-12-15.7-28.7-23.5-50-23.5
		c-21.2,0-37.8,7.8-49.9,23.5c-12,15.7-18,37.3-18,65c0,27.1,6,48.3,18,63.6c12,15.3,28.6,22.9,50,22.9
		C415.5,247.5,432.2,239.8,444.2,224.6z"/>
	<path class="st0" d="M14.1,350.9h26h81c34.4,0,60.5,10.1,78.4,30.3c17.9,20.2,26.8,49.8,26.8,88.7c0,42.9-9.3,75.5-27.8,97.8
		c-18.6,22.3-45.8,33.4-81.6,33.4H40.1h-26V350.9z M66.3,558.1h44.1c21.2,0,37.1-7.2,47.7-21.5c10.6-14.4,15.9-35.9,15.9-64.6
		c0-26-4.9-45.5-14.8-58.5c-9.9-13-24.7-19.5-44.6-19.5H66.3V558.1z"/>
	<path class="st0" d="M436.3,426c-0.9-11.9-6.1-21.4-15.7-28.3c-9.5-7-21.9-10.5-37.3-10.5c-13.3,0-23.6,2.9-31.1,8.8
		c-7.5,5.8-11.2,14-11.2,24.4c0,7.5,3.9,13.3,11.7,17.4c7.7,4.1,24.1,8.9,49.2,14.5c36.4,8.2,60.8,17.6,73,28.3
		c12.3,10.6,18.4,27.5,18.4,50.9c0,23.5-9.2,42.1-27.7,55.9c-18.5,13.8-43.5,20.7-75,20.7c-31.7,0-56.4-7.3-74.2-22
		c-17.8-14.6-27.3-35.5-28.6-62.5h50.4c0.6,13.3,5.4,23.5,14.5,30.6s21.7,10.7,37.9,10.7c16.7,0,29.7-2.7,39-8.1
		c9.4-5.4,14-12.9,14-22.4c0-9.4-3.4-16.3-10.1-20.8c-6.6-4.4-20.6-9-42.2-13.8c-39.7-8.9-66.2-18.4-79.6-28.8
		c-13.3-10.2-19.9-26.2-19.9-47.8c0-24.3,8.8-43.5,26.4-57.8c17.6-14.2,41.3-21.4,71.3-21.4c28,0,50.8,7.4,68.4,22.1
		c17.6,14.8,27.3,34.7,29.3,59.7H436.3z"/>
</g>
</svg>
